<?xml version="1.0" encoding="utf-8"?>
<!-- Generator: Adobe Illustrator 25.0.0, SVG Export Plug-In . SVG Version: 6.00 Build 0)  -->
<svg version="1.1" id="Layer_1" xmlns="http://www.w3.org/2000/svg" xmlns:xlink="http://www.w3.org/1999/xlink" x="0px" y="0px"
	 viewBox="0 0 229 58" style="enable-background:new 0 0 229 58;" xml:space="preserve">
<style type="text/css">
	.st0{fill:#383A3A;stroke:#3D3E3F;stroke-miterlimit:10;}
	.st1{fill:#F9A52A;}
</style>
<g>
	<g>
		<path class="st0" d="M50.4,29.3c0-1.2,0.2-2.2,0.6-3.2c0.4-1,1-1.8,1.7-2.4c0.7-0.7,1.5-1.2,2.5-1.6c0.9-0.4,1.9-0.5,3-0.5
			c0.8,0,1.6,0.1,2.2,0.2c0.7,0.2,1.2,0.3,1.7,0.6c0.5,0.2,1,0.5,1.4,0.8l-2.3,4.1c-0.2-0.2-0.5-0.3-0.8-0.5
			c-0.3-0.1-0.6-0.2-0.9-0.3c-0.3-0.1-0.7-0.2-1.2-0.2c-0.5,0-0.9,0.1-1.3,0.2c-0.4,0.2-0.7,0.4-1,0.7c-0.3,0.3-0.5,0.6-0.7,1
			c-0.2,0.4-0.2,0.8-0.2,1.2c0,0.4,0.1,0.8,0.3,1.2c0.2,0.4,0.4,0.7,0.7,1c0.3,0.3,0.6,0.5,1,0.7c0.4,0.2,0.8,0.2,1.3,0.2
			c0.5,0,0.9-0.1,1.3-0.2c0.4-0.1,0.7-0.3,0.9-0.4c0.3-0.2,0.6-0.4,0.8-0.6l2.3,4.1c-0.4,0.3-0.9,0.6-1.4,0.9
			c-0.5,0.2-1,0.4-1.7,0.6C60,36.9,59.2,37,58.4,37c-1.2,0-2.2-0.2-3.2-0.6c-1-0.4-1.8-0.9-2.5-1.6c-0.7-0.7-1.3-1.5-1.7-2.4
			C50.6,31.5,50.4,30.4,50.4,29.3z M53.2,29.3c0-0.7,0.1-1.4,0.4-2c0.2-0.6,0.6-1.2,1-1.6c0.4-0.5,1-0.8,1.6-1.1
			c0.6-0.3,1.3-0.4,2.1-0.4c0.4,0,0.7,0,1,0.1c0.3,0.1,0.6,0.1,0.8,0.2c0.3,0.1,0.5,0.2,0.6,0.3l0.3-0.5c-0.2-0.1-0.5-0.2-0.8-0.3
			c-0.3-0.1-0.5-0.1-0.9-0.2c-0.3-0.1-0.7-0.1-1.1-0.1c-0.8,0-1.5,0.1-2.2,0.4c-0.7,0.3-1.3,0.6-1.8,1.1c-0.5,0.5-0.9,1.1-1.3,1.8
			c-0.3,0.7-0.5,1.5-0.5,2.3c0,0.9,0.2,1.7,0.5,2.3c0.3,0.7,0.7,1.3,1.3,1.8c0.5,0.5,1.2,0.9,1.9,1.1c0.7,0.3,1.5,0.4,2.3,0.4
			c0.4,0,0.8,0,1.2-0.1c0.4-0.1,0.7-0.2,0.9-0.2c0.3-0.1,0.5-0.2,0.8-0.4L61,33.7c-0.2,0.1-0.4,0.2-0.7,0.3
			c-0.2,0.1-0.5,0.2-0.8,0.2c-0.3,0.1-0.7,0.1-1.1,0.1c-0.8,0-1.5-0.1-2.2-0.4c-0.6-0.3-1.2-0.6-1.6-1.1c-0.5-0.5-0.8-1-1-1.6
			C53.3,30.7,53.2,30,53.2,29.3z"/>
		<path class="st0" d="M64.8,29.3c0-1.1,0.2-2.1,0.6-3c0.4-0.9,1-1.8,1.7-2.5c0.7-0.7,1.5-1.3,2.5-1.7c0.9-0.4,1.9-0.6,3-0.6
			c1.1,0,2.1,0.2,3,0.6c0.9,0.4,1.8,1,2.5,1.7c0.7,0.7,1.3,1.5,1.7,2.5c0.4,0.9,0.6,1.9,0.6,3c0,1.1-0.2,2.1-0.6,3
			c-0.4,0.9-1,1.8-1.7,2.5c-0.7,0.7-1.5,1.3-2.5,1.7s-1.9,0.6-3,0.6c-1.1,0-2.1-0.2-3-0.6c-0.9-0.4-1.8-1-2.5-1.7
			c-0.7-0.7-1.3-1.5-1.7-2.5C65,31.4,64.8,30.3,64.8,29.3z M66.9,29.3c0,0.8,0.1,1.5,0.4,2.2c0.3,0.7,0.7,1.3,1.2,1.8
			c0.5,0.5,1.1,0.9,1.8,1.2c0.7,0.3,1.4,0.4,2.2,0.4c0.8,0,1.5-0.1,2.2-0.4c0.7-0.3,1.3-0.7,1.8-1.2c0.5-0.5,0.9-1.1,1.2-1.8
			c0.3-0.7,0.4-1.4,0.4-2.2c0-0.8-0.1-1.5-0.4-2.2c-0.3-0.7-0.7-1.3-1.2-1.8c-0.5-0.5-1.1-0.9-1.8-1.2c-0.7-0.3-1.4-0.4-2.2-0.4
			c-0.8,0-1.5,0.1-2.2,0.4c-0.7,0.3-1.3,0.7-1.8,1.2c-0.5,0.5-0.9,1.1-1.2,1.8C67,27.8,66.9,28.5,66.9,29.3z M72.6,34.4
			c-0.7,0-1.4-0.1-2-0.4c-0.6-0.3-1.2-0.6-1.6-1.1c-0.5-0.5-0.8-1-1.1-1.6c-0.3-0.6-0.4-1.3-0.4-2s0.1-1.4,0.4-2
			c0.3-0.6,0.6-1.2,1.1-1.6c0.5-0.5,1-0.8,1.6-1.1c0.6-0.3,1.3-0.4,2-0.4c0.7,0,1.4,0.1,2,0.4c0.6,0.3,1.2,0.6,1.6,1.1
			c0.5,0.5,0.8,1,1.1,1.6s0.4,1.3,0.4,2s-0.1,1.4-0.4,2s-0.6,1.2-1.1,1.6c-0.5,0.5-1,0.8-1.6,1.1S73.3,34.4,72.6,34.4z M69.4,29.3
			c0,0.4,0.1,0.8,0.2,1.2c0.2,0.4,0.4,0.7,0.7,1c0.3,0.3,0.6,0.5,1,0.7c0.4,0.2,0.8,0.2,1.2,0.2c0.4,0,0.8-0.1,1.2-0.2
			c0.4-0.2,0.7-0.4,1-0.7c0.3-0.3,0.5-0.6,0.7-1c0.2-0.4,0.2-0.8,0.2-1.2c0-0.4-0.1-0.8-0.2-1.2c-0.2-0.4-0.4-0.7-0.7-1
			c-0.3-0.3-0.6-0.5-1-0.7c-0.4-0.2-0.8-0.2-1.2-0.2c-0.4,0-0.8,0.1-1.2,0.2c-0.4,0.2-0.7,0.4-1,0.7c-0.3,0.3-0.5,0.6-0.7,1
			C69.5,28.5,69.4,28.9,69.4,29.3z"/>
		<path class="st0" d="M83.3,29.3c0-1.1,0.2-2.1,0.6-3c0.4-0.9,1-1.8,1.7-2.5c0.7-0.7,1.5-1.3,2.5-1.7c0.9-0.4,1.9-0.6,3-0.6
			c1.1,0,2.1,0.2,3,0.6c0.9,0.4,1.8,1,2.5,1.7c0.7,0.7,1.3,1.5,1.7,2.5c0.4,0.9,0.6,1.9,0.6,3c0,1.1-0.2,2.1-0.6,3
			c-0.4,0.9-1,1.8-1.7,2.5c-0.7,0.7-1.5,1.3-2.5,1.7s-1.9,0.6-3,0.6c-1.1,0-2.1-0.2-3-0.6c-0.9-0.4-1.8-1-2.5-1.7
			c-0.7-0.7-1.3-1.5-1.7-2.5C83.5,31.4,83.3,30.3,83.3,29.3z M85.4,29.3c0,0.8,0.1,1.5,0.4,2.2c0.3,0.7,0.7,1.3,1.2,1.8
			c0.5,0.5,1.1,0.9,1.8,1.2c0.7,0.3,1.4,0.4,2.2,0.4c0.8,0,1.5-0.1,2.2-0.4c0.7-0.3,1.3-0.7,1.8-1.2c0.5-0.5,0.9-1.1,1.2-1.8
			c0.3-0.7,0.4-1.4,0.4-2.2c0-0.8-0.1-1.5-0.4-2.2c-0.3-0.7-0.7-1.3-1.2-1.8c-0.5-0.5-1.1-0.9-1.8-1.2c-0.7-0.3-1.4-0.4-2.2-0.4
			c-0.8,0-1.5,0.1-2.2,0.4c-0.7,0.3-1.3,0.7-1.8,1.2c-0.5,0.5-0.9,1.1-1.2,1.8C85.6,27.8,85.4,28.5,85.4,29.3z M91.1,34.4
			c-0.7,0-1.4-0.1-2-0.4c-0.6-0.3-1.2-0.6-1.6-1.1c-0.5-0.5-0.8-1-1.1-1.6c-0.3-0.6-0.4-1.3-0.4-2s0.1-1.4,0.4-2
			c0.3-0.6,0.6-1.2,1.1-1.6c0.5-0.5,1-0.8,1.6-1.1c0.6-0.3,1.3-0.4,2-0.4c0.7,0,1.4,0.1,2,0.4c0.6,0.3,1.2,0.6,1.6,1.1
			c0.5,0.5,0.8,1,1.1,1.6s0.4,1.3,0.4,2s-0.1,1.4-0.4,2s-0.6,1.2-1.1,1.6c-0.5,0.5-1,0.8-1.6,1.1S91.8,34.4,91.1,34.4z M88,29.3
			c0,0.4,0.1,0.8,0.2,1.2c0.2,0.4,0.4,0.7,0.7,1c0.3,0.3,0.6,0.5,1,0.7c0.4,0.2,0.8,0.2,1.2,0.2c0.4,0,0.8-0.1,1.2-0.2
			c0.4-0.2,0.7-0.4,1-0.7c0.3-0.3,0.5-0.6,0.7-1c0.2-0.4,0.2-0.8,0.2-1.2c0-0.4-0.1-0.8-0.2-1.2c-0.2-0.4-0.4-0.7-0.7-1
			c-0.3-0.3-0.6-0.5-1-0.7c-0.4-0.2-0.8-0.2-1.2-0.2c-0.4,0-0.8,0.1-1.2,0.2c-0.4,0.2-0.7,0.4-1,0.7c-0.3,0.3-0.5,0.6-0.7,1
			C88.1,28.5,88,28.9,88,29.3z"/>
		<path class="st0" d="M102.2,21.9h4.8v3.4l2.8-3.4h5.8l-5.2,6.8l5.5,8h-5.7l-3.1-4.6v4.6h-4.8V21.9z M105,34.9v-3l2.3-2.9l4,5.8
			h0.7l-4.3-6.3l4-4.9H111l-6,7.4v-7.4h-0.6v11.2H105z"/>
		<path class="st0" d="M118.4,21.9h5v14.8h-5V21.9z M121.2,34.9V23.7h-0.6v11.2H121.2z"/>
		<path class="st0" d="M127.1,21.9h3.9l4.1,5.7v-5.7h4.6v14.8h-3.9l-4.1-5.7v5.7h-4.6V21.9z M129.8,34.9V24.7l7.3,10.2h0.6V23.7
			h-0.6v10.2l-7.3-10.2h-0.6v11.2H129.8z"/>
		<path class="st0" d="M152.8,26.9c-0.3-0.2-0.6-0.4-1-0.5c-0.4-0.1-0.8-0.2-1.2-0.2c-0.4,0-0.8,0.1-1.2,0.2
			c-0.4,0.2-0.7,0.4-0.9,0.6c-0.3,0.3-0.5,0.6-0.6,1c-0.1,0.4-0.2,0.8-0.2,1.2s0.1,0.9,0.2,1.2c0.2,0.4,0.4,0.7,0.7,1
			c0.3,0.3,0.6,0.5,1,0.6c0.4,0.2,0.8,0.2,1.2,0.2c0.5,0,1-0.1,1.4-0.3c0.4-0.2,0.8-0.5,1.1-0.9h-1.3v-3.1h5.7V33
			c-0.3,0.6-0.7,1.2-1.2,1.6c-0.5,0.5-1,0.9-1.6,1.3c-0.6,0.4-1.2,0.6-1.9,0.8c-0.7,0.2-1.4,0.3-2.1,0.3c-1.1,0-2.1-0.2-3-0.6
			c-0.9-0.4-1.8-0.9-2.5-1.6s-1.3-1.5-1.7-2.5c-0.4-0.9-0.6-2-0.6-3.1c0-1.1,0.2-2.1,0.6-3c0.4-0.9,0.9-1.8,1.6-2.5
			c0.7-0.7,1.5-1.3,2.4-1.7c0.9-0.4,1.9-0.6,3-0.6c0.8,0,1.5,0.1,2.1,0.2c0.6,0.2,1.1,0.3,1.5,0.6c0.5,0.2,0.9,0.5,1.2,0.8
			L152.8,26.9z M153,24.1c-0.2-0.1-0.4-0.2-0.6-0.2c-0.2-0.1-0.5-0.1-0.7-0.2c-0.3,0-0.6-0.1-0.9-0.1c-0.8,0-1.5,0.1-2.2,0.4
			c-0.7,0.3-1.3,0.7-1.8,1.2c-0.5,0.5-0.9,1.1-1.2,1.8c-0.3,0.7-0.4,1.5-0.4,2.3c0,0.8,0.1,1.6,0.4,2.3c0.3,0.7,0.7,1.3,1.2,1.8
			s1.1,0.9,1.8,1.2c0.7,0.3,1.4,0.4,2.2,0.4c1,0,1.9-0.2,2.8-0.7c0.8-0.5,1.5-1.1,2-1.9v-2.9h-2.3v0.5h1.8v2.2
			c-0.5,0.7-1.1,1.2-1.8,1.6c-0.7,0.4-1.5,0.6-2.4,0.6c-0.7,0-1.4-0.1-2-0.4c-0.6-0.2-1.2-0.6-1.6-1c-0.5-0.5-0.8-1-1.1-1.6
			c-0.3-0.6-0.4-1.3-0.4-2.1s0.1-1.4,0.4-2.1c0.3-0.6,0.6-1.2,1.1-1.6c0.5-0.5,1-0.8,1.6-1c0.6-0.2,1.3-0.4,2-0.4
			c0.3,0,0.5,0,0.8,0.1c0.2,0,0.4,0.1,0.6,0.1c0.2,0.1,0.4,0.1,0.6,0.2L153,24.1z"/>
		<path class="st0" d="M167.6,21.9h5.8c0.7,0,1.4,0.1,2,0.3c0.6,0.2,1.1,0.4,1.6,0.8c0.4,0.3,0.8,0.7,1,1.2c0.2,0.5,0.4,1.1,0.4,1.7
			c0,0.5-0.1,0.9-0.2,1.2c-0.1,0.3-0.2,0.6-0.4,0.8c-0.2,0.3-0.3,0.5-0.6,0.7c0.3,0.2,0.6,0.5,0.9,0.8c0.2,0.3,0.4,0.6,0.6,1.1
			c0.2,0.4,0.3,1,0.3,1.6c0,0.7-0.1,1.4-0.4,1.9c-0.3,0.6-0.6,1.1-1.1,1.5c-0.5,0.4-1,0.7-1.7,0.9c-0.7,0.2-1.4,0.3-2.2,0.3h-6V21.9
			z M173,34.9c1.3,0,2.3-0.3,2.9-0.8c0.6-0.6,0.9-1.3,0.9-2.2c0-0.6-0.1-1.1-0.4-1.5c-0.3-0.4-0.5-0.6-0.8-0.9
			c-0.4-0.2-0.8-0.4-1.2-0.5c0.4-0.1,0.7-0.3,1-0.5c0.3-0.2,0.5-0.5,0.7-0.8c0.2-0.3,0.3-0.8,0.3-1.3c0-0.9-0.3-1.6-0.9-2.1
			c-0.6-0.5-1.4-0.7-2.4-0.7h-3.2v11.2H173z M170.3,28.8v-4.6h2.6c1,0,1.6,0.2,2.1,0.6c0.4,0.4,0.6,1,0.6,1.6c0,0.7-0.2,1.2-0.6,1.6
			c-0.4,0.4-1.1,0.6-2.1,0.6H170.3z M170.3,34.4v-5.1h2.6c0.5,0,0.9,0,1.3,0.1c0.4,0.1,0.7,0.2,1,0.4c0.3,0.2,0.5,0.5,0.7,0.8
			c0.2,0.3,0.3,0.7,0.3,1.2c0,0.9-0.3,1.5-0.9,1.9c-0.6,0.4-1.4,0.6-2.4,0.6H170.3z M173.8,26.4c0-0.7-0.4-1-1.1-1h-0.5v2h0.5
			C173.4,27.4,173.8,27.1,173.8,26.4z M172.6,33.2c1.1,0,1.7-0.4,1.7-1.3c0-0.9-0.6-1.3-1.7-1.3h-0.5v2.6H172.6z"/>
		<path class="st0" d="M182.1,21.9h4.9v10.9h4.1v3.9h-9V21.9z M189.9,34.9v-0.5h-5V23.7h-0.6v11.2H189.9z"/>
		<path class="st0" d="M193,29.3c0-1.1,0.2-2.1,0.6-3c0.4-0.9,1-1.8,1.7-2.5c0.7-0.7,1.5-1.3,2.5-1.7c0.9-0.4,1.9-0.6,3-0.6
			c1.1,0,2.1,0.2,3,0.6c0.9,0.4,1.8,1,2.5,1.7c0.7,0.7,1.3,1.5,1.7,2.5c0.4,0.9,0.6,1.9,0.6,3c0,1.1-0.2,2.1-0.6,3
			c-0.4,0.9-1,1.8-1.7,2.5c-0.7,0.7-1.5,1.3-2.5,1.7c-0.9,0.4-1.9,0.6-3,0.6c-1.1,0-2.1-0.2-3-0.6c-0.9-0.4-1.8-1-2.5-1.7
			c-0.7-0.7-1.3-1.5-1.7-2.5C193.2,31.4,193,30.3,193,29.3z M195.1,29.3c0,0.8,0.1,1.5,0.4,2.2c0.3,0.7,0.7,1.3,1.2,1.8
			c0.5,0.5,1.1,0.9,1.8,1.2c0.7,0.3,1.4,0.4,2.2,0.4s1.5-0.1,2.2-0.4c0.7-0.3,1.3-0.7,1.8-1.2c0.5-0.5,0.9-1.1,1.2-1.8
			c0.3-0.7,0.4-1.4,0.4-2.2c0-0.8-0.1-1.5-0.4-2.2c-0.3-0.7-0.7-1.3-1.2-1.8c-0.5-0.5-1.1-0.9-1.8-1.2c-0.7-0.3-1.4-0.4-2.2-0.4
			s-1.5,0.1-2.2,0.4c-0.7,0.3-1.3,0.7-1.8,1.2s-0.9,1.1-1.2,1.8C195.3,27.8,195.1,28.5,195.1,29.3z M200.8,34.4
			c-0.7,0-1.4-0.1-2-0.4c-0.6-0.3-1.2-0.6-1.6-1.1c-0.5-0.5-0.8-1-1.1-1.6c-0.3-0.6-0.4-1.3-0.4-2s0.1-1.4,0.4-2
			c0.3-0.6,0.6-1.2,1.1-1.6c0.5-0.5,1-0.8,1.6-1.1c0.6-0.3,1.3-0.4,2-0.4c0.7,0,1.4,0.1,2,0.4c0.6,0.3,1.2,0.6,1.6,1.1
			c0.5,0.5,0.8,1,1.1,1.6s0.4,1.3,0.4,2s-0.1,1.4-0.4,2s-0.6,1.2-1.1,1.6c-0.5,0.5-1,0.8-1.6,1.1C202.2,34.2,201.5,34.4,200.8,34.4z
			 M197.7,29.3c0,0.4,0.1,0.8,0.2,1.2c0.2,0.4,0.4,0.7,0.7,1c0.3,0.3,0.6,0.5,1,0.7c0.4,0.2,0.8,0.2,1.2,0.2c0.4,0,0.8-0.1,1.2-0.2
			c0.4-0.2,0.7-0.4,1-0.7c0.3-0.3,0.5-0.6,0.7-1c0.2-0.4,0.2-0.8,0.2-1.2c0-0.4-0.1-0.8-0.2-1.2c-0.2-0.4-0.4-0.7-0.7-1
			c-0.3-0.3-0.6-0.5-1-0.7c-0.4-0.2-0.8-0.2-1.2-0.2c-0.4,0-0.8,0.1-1.2,0.2c-0.4,0.2-0.7,0.4-1,0.7c-0.3,0.3-0.5,0.6-0.7,1
			C197.8,28.5,197.7,28.9,197.7,29.3z"/>
		<path class="st0" d="M221.3,26.9c-0.3-0.2-0.6-0.4-1-0.5c-0.4-0.1-0.8-0.2-1.2-0.2c-0.4,0-0.8,0.1-1.2,0.2
			c-0.4,0.2-0.7,0.4-0.9,0.6c-0.3,0.3-0.5,0.6-0.6,1c-0.1,0.4-0.2,0.8-0.2,1.2s0.1,0.9,0.2,1.2c0.2,0.4,0.4,0.7,0.7,1
			c0.3,0.3,0.6,0.5,1,0.6c0.4,0.2,0.8,0.2,1.2,0.2c0.5,0,1-0.1,1.4-0.3c0.4-0.2,0.8-0.5,1.1-0.9h-1.3v-3.1h5.7V33
			c-0.3,0.6-0.7,1.2-1.2,1.6c-0.5,0.5-1,0.9-1.6,1.3c-0.6,0.4-1.2,0.6-1.9,0.8c-0.7,0.2-1.4,0.3-2.1,0.3c-1.1,0-2.1-0.2-3-0.6
			c-0.9-0.4-1.8-0.9-2.5-1.6s-1.3-1.5-1.7-2.5c-0.4-0.9-0.6-2-0.6-3.1c0-1.1,0.2-2.1,0.6-3c0.4-0.9,0.9-1.8,1.6-2.5
			c0.7-0.7,1.5-1.3,2.4-1.7c0.9-0.4,1.9-0.6,3-0.6c0.8,0,1.5,0.1,2.1,0.2c0.6,0.2,1.1,0.3,1.5,0.6c0.5,0.2,0.9,0.5,1.2,0.8
			L221.3,26.9z M221.5,24.1c-0.2-0.1-0.4-0.2-0.6-0.2c-0.2-0.1-0.5-0.1-0.7-0.2c-0.3,0-0.6-0.1-0.9-0.1c-0.8,0-1.5,0.1-2.2,0.4
			c-0.7,0.3-1.3,0.7-1.8,1.2c-0.5,0.5-0.9,1.1-1.2,1.8c-0.3,0.7-0.4,1.5-0.4,2.3c0,0.8,0.1,1.6,0.4,2.3c0.3,0.7,0.7,1.3,1.2,1.8
			c0.5,0.5,1.1,0.9,1.8,1.2c0.7,0.3,1.4,0.4,2.2,0.4c1,0,1.9-0.2,2.8-0.7c0.8-0.5,1.5-1.1,2-1.9v-2.9h-2.3v0.5h1.8v2.2
			c-0.5,0.7-1.1,1.2-1.8,1.6c-0.7,0.4-1.5,0.6-2.4,0.6c-0.7,0-1.4-0.1-2-0.4c-0.6-0.2-1.2-0.6-1.6-1c-0.5-0.5-0.8-1-1.1-1.6
			s-0.4-1.3-0.4-2.1s0.1-1.4,0.4-2.1c0.3-0.6,0.6-1.2,1.1-1.6c0.5-0.5,1-0.8,1.6-1c0.6-0.2,1.3-0.4,2-0.4c0.3,0,0.5,0,0.8,0.1
			c0.2,0,0.4,0.1,0.6,0.1c0.2,0.1,0.4,0.1,0.6,0.2L221.5,24.1z"/>
	</g>
	<g>
		<g>
			<path class="st1" d="M17,9.4c-0.1-0.3-0.7-0.6-1-0.6c-0.9-0.1-7.2,1.6-7.9,2.1c-0.2,0.2-0.5,0.7-0.5,1c0,3.1,1.8,9.2,3.1,12
				c1.4,2.9,4.5,2.5,5,3.8c0.8,2.1,2.7,9.6,2.7,9.6s-0.7,0.2-0.6,0.7c2.6,10.1,2.8,10.5,3.7,13.9c0,0.2,0.3,0.4,0.6,0.4
				c0.2,0,2.2-0.5,2.5-0.6c0.2-0.1,0.3-0.5,0.3-0.6c-0.9-3.4-1-3.9-3.7-13.9c-0.1-0.5-0.9-0.3-0.9-0.3s-2.1-7.4-2.4-9.7
				c-0.2-1.4,2.7-2.6,2.5-5.8C20,18.2,18.5,12.1,17,9.4z M15.4,11c0-0.2,0.1-0.4,0.3-0.4c0.2,0,0.4,0.1,0.4,0.2l2,7.5
				c0,0.2-0.1,0.4-0.3,0.4c-0.2,0.1-0.4-0.1-0.4-0.2L15.4,11z M13.3,11.6c0-0.2,0.1-0.4,0.3-0.4c0.2,0,0.4,0.1,0.4,0.2l2,7.5
				c0,0.2-0.1,0.4-0.3,0.4c-0.2,0-0.4-0.1-0.4-0.2L13.3,11.6z M11.2,12.1c0-0.2,0.1-0.4,0.3-0.4c0.2,0,0.4,0.1,0.4,0.2l2,7.5
				c0,0.2-0.1,0.4-0.3,0.4c-0.2,0-0.4-0.1-0.4-0.2L11.2,12.1z M11.6,20.4c-0.2,0-0.4-0.1-0.4-0.2l-2-7.5c0-0.2,0.1-0.4,0.3-0.4
				c0.2,0,0.4,0.1,0.4,0.2l2,7.5C11.9,20.2,11.8,20.4,11.6,20.4z M23,51.2c-0.4,0.1-0.8-0.1-0.9-0.5c-0.1-0.4,0.1-0.8,0.5-0.9
				c0.4-0.1,0.8,0.1,0.9,0.5C23.6,50.7,23.4,51.1,23,51.2z"/>
			<path class="st1" d="M40.6,24.3c0.5-0.3,0.6-1,0.8-1.7c0.5-1.6,1.9-6.2,2-6.7l-0.1,0c-0.2,0.4-1.9,5-2.5,6.5l0,0
				c0,0.1-0.2,0.1-0.3,0.1c-0.1,0-0.2-0.2-0.2-0.2l0,0c0.5-1.6,1.9-6.2,2-6.7l-0.1,0c-0.2,0.4-1.9,5-2.5,6.5l0,0
				c0,0.1-0.2,0.1-0.3,0.1c-0.1,0-0.2-0.2-0.2-0.2l0,0c0.5-1.6,1.9-6.2,2-6.7l-0.1,0c-0.2,0.4-1.9,5-2.5,6.5l0,0
				c0,0.1-0.2,0.1-0.3,0.1c-0.1,0-0.2-0.2-0.2-0.2l0,0c0.5-1.6,1.9-6.2,2-6.7l-0.1,0c-0.2,0.4-1.9,5-2.5,6.5
				c-0.2,0.7-0.6,1.4-0.4,1.9c0.4,0.9,0.9,1.3,0.6,2.2C33.5,38,31.7,39.7,31,41.8l0,0.1c-0.2,0.6,0.3,1.4,1.2,1.7c0,0,0,0,0,0
				c0.9,0.3,1.7,0,2-0.6l0-0.1c0.7-2,0.3-4.5,4.6-17.1C39.1,24.8,39.8,24.8,40.6,24.3z"/>
			<path class="st1" d="M11.8,29.4L11.8,29.4c-0.2-0.3-0.4-0.6-0.6-0.8c-1.5-2.2-4.2-6.8-5.8-9.1c-0.2-0.2-0.4-0.3-0.7-0.2
				c-0.4,0.2-0.5,0.5-0.5,0.7c0.8,2.6,4.2,8.8,4.9,9c0.4,0.1,0.8,0.1,1,0.3c0.2,0.1,0.5,0.4,0.7,0.7l0,0c4.6,7.2,4.9,9,5.8,10.3l0,0
				c0.3,0.5,1.1,0.5,1.8,0.1l0,0c0.6-0.4,0.9-1.2,0.6-1.6l0,0C18.2,37.4,16.6,36.4,11.8,29.4z"/>
			<path class="st1" d="M23.6,0.6c-2.3,0-4.2,2.4-4.2,5.3c0,0.2,0,0.5,0,0.5c0,4,3.3,5.9,3.3,8.4v28.8c0,0.5,0.3,0.9,0.8,0.9
				c0,0,0.1,0,0.2,0c0.5,0,0.8-0.4,0.8-0.9V14.8c0-2.5,3.3-4.4,3.3-8.4c0,0,0-0.3,0-0.5C27.8,2.9,25.9,0.6,23.6,0.6z M25.3,6.4
				c-0.4,0.4-1.5,1.3-1.7,1.5c-0.2-0.2-1.3-1.1-1.7-1.5c-0.2-0.2-0.4-0.5-0.4-0.8c0-0.6,0.5-1.1,1.1-1.1c0.4,0,0.7,0.2,0.9,0.5
				l0.1,0.1L23.6,5c0.2-0.3,0.6-0.5,0.9-0.5c0.6,0,1.1,0.5,1.1,1.1C25.7,6,25.5,6.3,25.3,6.4z"/>
			<path class="st1" d="M38.8,9c-0.2-0.6-0.5-1.2-0.9-1.7c-0.8-1-1.9-1.7-3.1-2l0,0l-0.6-0.1l0,0c-1.3-0.1-2.5,0.1-3.6,0.8
				c-0.6,0.4-1,0.8-1.4,1.3c-0.4,0.5-0.6,1.2-0.7,1.8l0,0c-0.3,1.5-0.4,3.3-0.4,5.3c0,1.6,0.1,3.3,0.3,5.2c0.3,2.7,0.6,4.9,0.7,5.4
				c-0.2,0-0.4,0.2-0.5,0.5c-0.1,0.3,0.2,0.6,0.5,0.7l0.2,0c-0.8,3.7-3.7,17.9-3.7,17.9c0,0,0,0,0,0c-0.5,3,0.7,3.4,1.6,3.6
				c0,0,0,0,0,0c0,0,0,0,0,0c0.9,0.2,2.2,0.2,2.7-2.8v0c0,0,2-14.4,2.5-18.1l0.2,0c0.3,0.1,0.6-0.2,0.7-0.5c0-0.2-0.1-0.5-0.3-0.6
				c0.3-0.5,1.3-2.4,2.5-4.9c0.8-1.7,1.5-3.3,2-4.8c0.7-1.9,1.1-3.6,1.4-5.1l0,0C39,10.3,39,9.7,38.8,9z M27.5,46.5
				c-0.5-0.1-0.9-0.6-0.8-1.1c0.1-0.5,0.6-0.9,1.1-0.8c0.5,0.1,0.9,0.6,0.8,1.1C28.6,46.2,28,46.6,27.5,46.5z M30.9,25.4l-0.9-0.1
				c-0.1-1.4-0.4-9.7,0.6-15.5c0,0,0,0,0,0v0c0.4-2.4,2-4.2,3.6-4L30.9,25.4z M31.3,25.5l3.4-19.7c1.6,0.4,2.5,2.6,2.1,5l0,0
				c0,0,0,0,0,0c-1,5.9-4,13.5-4.6,14.8L31.3,25.5z M28.8,9.3C28.9,9.3,28.9,9.3,28.8,9.3L28.8,9.3c0.4-2.2,2.3-3.7,4.5-3.8
				c-0.1,0-0.1,0-0.2,0.1c-0.4,0.2-0.9,0.5-1.2,0.9c-0.8,0.8-1.3,1.9-1.5,3.2l0,0c-0.6,3.3-0.7,7.5-0.7,10.3c0,2.5,0.1,4.5,0.1,5.2
				l-0.3,0C29.3,24.3,27.8,15.4,28.8,9.3z M38.6,10.9C38.6,10.9,38.6,11,38.6,10.9c-1.1,6.1-5.4,14-5.9,14.8l-0.3,0
				c0.3-0.7,1-2.5,1.8-4.9c0.9-2.7,2.2-6.6,2.8-10l0,0c0.2-1.3,0.1-2.5-0.4-3.5c-0.2-0.5-0.5-0.9-0.9-1.2C35.8,6,35.7,6,35.6,5.9
				C37.7,6.8,39,8.8,38.6,10.9L38.6,10.9z"/>
			<path class="st1" d="M45.6,36.6c-3,0-4.4,0.4-5,0.7c0-1.3,0-2.5,0-3.6c0-0.9,1.3-0.5,1.1-1.6H5.5c-0.2,1.2,1.1,0.7,1.1,1.6
				c0,1,0,2.2,0,3.6c-0.6-0.3-2-0.7-5-0.7c-0.5,0-0.9,0.5-0.9,1.2c0,0.7,0.5,1.2,0.9,1.2c2.4,0,4.3,1.3,5.1,1.9
				c0.2,5.8,1,12.5,4.2,15.6l0.2,0.2c0,0.8,5.6,1.4,12.5,1.4c6.9,0,12.5-0.6,12.5-1.4l0.2-0.2c3.2-3.2,4-9.8,4.2-15.6
				c0.8-0.6,2.7-1.9,5.1-1.9c0.4,0,0.9-0.5,0.9-1.2C46.6,37.1,46.1,36.6,45.6,36.6z M12.2,56.2C7.6,51.5,8,39.5,8,33.4h2.2
				c0,6.1-1.1,17,3.5,23.1L12.2,56.2z"/>
		</g>
	</g>
</g>
</svg>
